<svg width="416" height="335" viewBox="0 0 416 335" fill="none" xmlns="http://www.w3.org/2000/svg">
<rect width="416" height="335" rx="10" fill="white"/>
<mask id="mask0_79_3" style="mask-type:alpha" maskUnits="userSpaceOnUse" x="0" y="0" width="416" height="335">
<rect width="416" height="335" rx="10" fill="white"/>
</mask>
<g mask="url(#mask0_79_3)">
<path d="M-30.5 57.5254H230.5C240.5 57.5254 243.5 52.5 243.5 44.5254V23.5255C243.5 17 245 8.02545 258 8.02545H373C383 8.02545 387.5 13 387.5 22.5255V44.5254C387.5 54.5 391 57.5254 400.5 57.5254L730 57.5254" stroke="#E0E0E0"/>
<rect x="9.375" y="66.375" width="397.25" height="259.25" rx="4.625" fill="#F8F8F8" stroke="#E0E0E0" stroke-width="0.75"/>
<mask id="mask1_79_3" style="mask-type:alpha" maskUnits="userSpaceOnUse" x="9" y="66" width="398" height="260">
<rect x="9.375" y="66.375" width="397.25" height="259.25" rx="4.625" fill="#F8F8F8" stroke="#E0E0E0" stroke-width="0.75"/>
</mask>
<g mask="url(#mask1_79_3)">
<path d="M56.312 94.848C56.312 94.096 55.816 93.584 55.08 93.584C54.36 93.584 53.848 94.096 53.848 94.848C53.848 95.568 54.36 96.08 55.08 96.08C55.816 96.08 56.312 95.568 56.312 94.848ZM61.5299 96.16C63.5299 96.16 64.9859 95.024 65.4019 93.136H63.8019C63.5299 94.24 62.6979 94.896 61.4979 94.896C60.0739 94.896 59.2099 93.888 59.0819 92.16H65.4019C65.6899 89.408 64.0099 87.36 61.4819 87.36C59.1459 87.36 57.4339 89.2 57.4339 91.712C57.4339 94.384 59.0819 96.16 61.5299 96.16ZM61.4499 88.576C62.7619 88.576 63.6099 89.52 63.6899 91.088H59.0979C59.2739 89.504 60.1539 88.576 61.4499 88.576ZM66.3558 91.76C66.3558 94.304 67.8278 96.16 70.1158 96.16C71.3158 96.16 72.3398 95.552 72.9478 94.48V96H74.4518V84.512H72.8358V88.976C72.2438 87.936 71.2518 87.36 70.1158 87.36C67.8278 87.36 66.3558 89.184 66.3558 91.76ZM68.0358 91.76C68.0358 89.84 69.0278 88.784 70.4358 88.784C71.7798 88.784 72.8358 89.824 72.8358 91.728C72.8358 93.6 71.8118 94.72 70.4358 94.72C69.0278 94.72 68.0358 93.648 68.0358 91.76ZM81.9941 92.512C81.9941 93.84 81.1141 94.736 80.0261 94.736C78.9701 94.736 78.2341 94.128 78.2341 92.656V87.52H76.6181V92.976C76.6181 95.152 77.8021 96.16 79.5141 96.16C80.6661 96.16 81.6581 95.536 82.1061 94.656V96H83.6101V87.52H81.9941V92.512ZM89.1984 96.176C91.3264 96.176 92.8304 94.8 93.1184 92.56H91.4384C91.2464 93.936 90.4144 94.736 89.2144 94.736C87.8224 94.736 86.9104 93.568 86.9104 91.76C86.9104 89.968 87.8224 88.784 89.2144 88.784C90.3984 88.784 91.2464 89.6 91.4224 90.96H93.1184C92.8144 88.752 91.2944 87.36 89.1984 87.36C86.9104 87.36 85.2464 89.2 85.2464 91.76C85.2464 94.352 86.8784 96.176 89.1984 96.176ZM99.881 96H101.225V90.56C101.225 88.544 100.009 87.36 97.913 87.36C95.929 87.36 94.569 88.624 94.489 90.528H95.961C96.009 89.344 96.729 88.64 97.913 88.64C99.033 88.64 99.689 89.328 99.689 90.544V91.168C99.001 91.088 98.601 91.072 98.105 91.072C95.577 91.072 94.249 91.936 94.249 93.6C94.249 95.152 95.401 96.16 97.161 96.16C98.409 96.16 99.353 95.632 99.881 94.688V96ZM95.785 93.552C95.785 92.56 96.585 92.08 98.201 92.08C98.617 92.08 99.065 92.096 99.689 92.176V92.864C99.689 94.16 98.841 95.008 97.481 95.008C96.441 95.008 95.785 94.432 95.785 93.552ZM108.092 94.432C107.756 94.592 107.42 94.656 107.036 94.656C106.172 94.656 105.612 94.24 105.612 93.072V88.896H108.172V87.52H105.612V85.008H103.996V87.52H102.123V88.896H103.996V93.44C103.996 95.312 105.084 96.16 106.652 96.16C107.164 96.16 107.596 96.08 108.092 95.856V94.432ZM111.682 85.552C111.682 84.928 111.202 84.48 110.514 84.48C109.826 84.48 109.33 84.928 109.33 85.552C109.33 86.16 109.826 86.624 110.514 86.624C111.202 86.624 111.682 86.16 111.682 85.552ZM111.33 96V87.52H109.714V96H111.33ZM117.125 96.16C119.525 96.16 121.285 94.272 121.285 91.76C121.285 89.248 119.525 87.36 117.125 87.36C114.725 87.36 112.965 89.248 112.965 91.76C112.965 94.272 114.725 96.16 117.125 96.16ZM117.125 94.736C115.733 94.736 114.645 93.616 114.645 91.76C114.645 89.904 115.733 88.8 117.125 88.8C118.517 88.8 119.621 89.904 119.621 91.76C119.621 93.616 118.517 94.736 117.125 94.736ZM124.549 91.216C124.549 89.712 125.477 88.784 126.581 88.784C127.781 88.784 128.421 89.6 128.421 91.056V96H130.036V90.512C130.036 88.48 128.885 87.36 127.141 87.36C125.973 87.36 125.013 87.984 124.437 88.928V87.52H122.933V96H124.549V91.216ZM56.312 226.848C56.312 226.096 55.816 225.584 55.08 225.584C54.36 225.584 53.848 226.096 53.848 226.848C53.848 227.568 54.36 228.08 55.08 228.08C55.816 228.08 56.312 227.568 56.312 226.848ZM61.3859 228.176C63.5139 228.176 65.0179 226.8 65.3059 224.56H63.6259C63.4339 225.936 62.6019 226.736 61.4019 226.736C60.0099 226.736 59.0979 225.568 59.0979 223.76C59.0979 221.968 60.0099 220.784 61.4019 220.784C62.5859 220.784 63.4339 221.6 63.6099 222.96H65.3059C65.0019 220.752 63.4819 219.36 61.3859 219.36C59.0979 219.36 57.4339 221.2 57.4339 223.76C57.4339 226.352 59.0659 228.176 61.3859 228.176ZM70.4064 228.16C72.8064 228.16 74.5664 226.272 74.5664 223.76C74.5664 221.248 72.8064 219.36 70.4064 219.36C68.0064 219.36 66.2464 221.248 66.2464 223.76C66.2464 226.272 68.0064 228.16 70.4064 228.16ZM70.4064 226.736C69.0144 226.736 67.9264 225.616 67.9264 223.76C67.9264 221.904 69.0144 220.8 70.4064 220.8C71.7984 220.8 72.9024 221.904 72.9024 223.76C72.9024 225.616 71.7984 226.736 70.4064 226.736ZM77.8298 223.216C77.8298 221.712 78.7578 220.784 79.8618 220.784C81.0618 220.784 81.7018 221.6 81.7018 223.056V228H83.3177V222.512C83.3177 220.48 82.1658 219.36 80.4218 219.36C79.2538 219.36 78.2938 219.984 77.7178 220.928V219.52H76.2138V228H77.8298V223.216ZM90.2165 226.432C89.8805 226.592 89.5445 226.656 89.1605 226.656C88.2965 226.656 87.7365 226.24 87.7365 225.072V220.896H90.2965V219.52H87.7365V217.008H86.1205V219.52H84.2485V220.896H86.1205V225.44C86.1205 227.312 87.2085 228.16 88.7765 228.16C89.2885 228.16 89.7205 228.08 90.2165 227.856V226.432ZM96.9748 228H98.3188V222.56C98.3188 220.544 97.1028 219.36 95.0068 219.36C93.0228 219.36 91.6628 220.624 91.5828 222.528H93.0548C93.1028 221.344 93.8228 220.64 95.0068 220.64C96.1268 220.64 96.7828 221.328 96.7828 222.544V223.168C96.0948 223.088 95.6948 223.072 95.1988 223.072C92.6708 223.072 91.3428 223.936 91.3428 225.6C91.3428 227.152 92.4948 228.16 94.2548 228.16C95.5028 228.16 96.4468 227.632 96.9748 226.688V228ZM92.8788 225.552C92.8788 224.56 93.6788 224.08 95.2948 224.08C95.7108 224.08 96.1588 224.096 96.7828 224.176V224.864C96.7828 226.16 95.9348 227.008 94.5748 227.008C93.5348 227.008 92.8788 226.432 92.8788 225.552ZM102.447 217.552C102.447 216.928 101.967 216.48 101.279 216.48C100.591 216.48 100.095 216.928 100.095 217.552C100.095 218.16 100.591 218.624 101.279 218.624C101.967 218.624 102.447 218.16 102.447 217.552ZM102.095 228V219.52H100.479V228H102.095ZM105.955 223.216C105.955 221.712 106.883 220.784 107.987 220.784C109.187 220.784 109.827 221.6 109.827 223.056V228H111.443V222.512C111.443 220.48 110.291 219.36 108.547 219.36C107.379 219.36 106.419 219.984 105.843 220.928V219.52H104.339V228H105.955V223.216ZM117.077 228.16C119.077 228.16 120.533 227.024 120.949 225.136H119.349C119.077 226.24 118.245 226.896 117.045 226.896C115.621 226.896 114.757 225.888 114.629 224.16H120.949C121.237 221.408 119.557 219.36 117.029 219.36C114.693 219.36 112.981 221.2 112.981 223.712C112.981 226.384 114.629 228.16 117.077 228.16ZM116.997 220.576C118.309 220.576 119.157 221.52 119.237 223.088H114.645C114.821 221.504 115.701 220.576 116.997 220.576ZM124.283 223.664C124.283 221.792 125.611 220.992 127.435 221.088V219.408C126.043 219.408 124.763 220.144 124.171 221.312V219.52H122.667V228H124.283V223.664Z" fill="#4F36E7"/>
<path d="M134.678 92.496C135.766 92.496 136.166 92.88 136.166 93.776V96.816C136.166 98.256 137.142 99.12 138.71 99.12C138.902 99.12 139.094 99.12 139.302 99.088V97.696C139.174 97.728 139.046 97.728 138.934 97.728C138.246 97.728 137.814 97.328 137.814 96.624V93.648C137.814 92.624 137.414 92 136.502 91.792C137.382 91.584 137.814 90.96 137.814 89.952V86.96C137.814 86.272 138.23 85.872 138.934 85.872C139.046 85.872 139.174 85.872 139.302 85.904V84.496C139.094 84.48 138.902 84.48 138.71 84.48C137.142 84.48 136.166 85.344 136.166 86.784V89.808C136.166 90.72 135.766 91.104 134.678 91.104V92.496ZM128.937 110.736C128.937 110 128.441 109.488 127.705 109.488C126.985 109.488 126.473 110 126.473 110.736C126.473 111.456 126.985 111.968 127.705 111.968C128.441 111.968 128.937 111.456 128.937 110.736ZM128.937 116.848C128.937 116.096 128.441 115.584 127.705 115.584C126.985 115.584 126.473 116.096 126.473 116.848C126.473 117.568 126.985 118.08 127.705 118.08C128.441 118.08 128.937 117.568 128.937 116.848ZM135.861 118V113.984L139.685 118H141.765L137.477 113.632L141.397 109.52H139.493L135.861 113.312V106.512H134.245V118H135.861ZM147.803 118H149.147V112.56C149.147 110.544 147.931 109.36 145.835 109.36C143.851 109.36 142.491 110.624 142.411 112.528H143.883C143.931 111.344 144.651 110.64 145.835 110.64C146.955 110.64 147.611 111.328 147.611 112.544V113.168C146.923 113.088 146.523 113.072 146.027 113.072C143.499 113.072 142.171 113.936 142.171 115.6C142.171 117.152 143.323 118.16 145.083 118.16C146.331 118.16 147.275 117.632 147.803 116.688V118ZM143.707 115.552C143.707 114.56 144.507 114.08 146.123 114.08C146.539 114.08 146.987 114.096 147.611 114.176V114.864C147.611 116.16 146.763 117.008 145.403 117.008C144.363 117.008 143.707 116.432 143.707 115.552ZM152.924 113.216C152.924 111.712 153.852 110.784 154.956 110.784C156.156 110.784 156.796 111.6 156.796 113.056V118H158.411V112.512C158.411 110.48 157.26 109.36 155.516 109.36C154.348 109.36 153.388 109.984 152.812 110.928V109.52H151.308V118H152.924V113.216ZM167.278 115.472C167.278 114.256 166.478 113.52 164.798 113.216L163.358 112.944C162.334 112.752 161.902 112.432 161.902 111.744C161.902 111.008 162.59 110.576 163.614 110.576C164.75 110.576 165.502 111.168 165.598 112.192H167.15C167.006 110.448 165.63 109.36 163.598 109.36C161.63 109.36 160.334 110.4 160.334 111.888C160.334 113.168 161.214 113.968 162.782 114.272L164.158 114.528C165.214 114.736 165.646 115.04 165.646 115.744C165.646 116.544 164.894 116.944 163.758 116.944C162.462 116.944 161.614 116.288 161.549 115.232H159.998C160.158 117.056 161.486 118.16 163.726 118.16C165.982 118.16 167.278 117.136 167.278 115.472ZM174.178 118H175.522V112.56C175.522 110.544 174.306 109.36 172.21 109.36C170.226 109.36 168.866 110.624 168.786 112.528H170.258C170.306 111.344 171.026 110.64 172.21 110.64C173.33 110.64 173.986 111.328 173.986 112.544V113.168C173.298 113.088 172.898 113.072 172.402 113.072C169.874 113.072 168.546 113.936 168.546 115.6C168.546 117.152 169.698 118.16 171.458 118.16C172.706 118.16 173.65 117.632 174.178 116.688V118ZM170.082 115.552C170.082 114.56 170.882 114.08 172.498 114.08C172.914 114.08 173.362 114.096 173.986 114.176V114.864C173.986 116.16 173.138 117.008 171.778 117.008C170.738 117.008 170.082 116.432 170.082 115.552ZM184.403 115.472C184.403 114.256 183.603 113.52 181.923 113.216L180.483 112.944C179.459 112.752 179.027 112.432 179.027 111.744C179.027 111.008 179.715 110.576 180.739 110.576C181.875 110.576 182.627 111.168 182.723 112.192H184.275C184.131 110.448 182.755 109.36 180.723 109.36C178.755 109.36 177.459 110.4 177.459 111.888C177.459 113.168 178.339 113.968 179.907 114.272L181.283 114.528C182.339 114.736 182.771 115.04 182.771 115.744C182.771 116.544 182.019 116.944 180.883 116.944C179.587 116.944 178.739 116.288 178.674 115.232H177.123C177.283 117.056 178.611 118.16 180.851 118.16C183.107 118.16 184.403 117.136 184.403 115.472ZM190.423 114.32V112.864H185.447V114.32H190.423ZM198.668 115.472C198.668 114.256 197.868 113.52 196.188 113.216L194.748 112.944C193.724 112.752 193.292 112.432 193.292 111.744C193.292 111.008 193.98 110.576 195.004 110.576C196.14 110.576 196.892 111.168 196.988 112.192H198.54C198.396 110.448 197.02 109.36 194.988 109.36C193.02 109.36 191.724 110.4 191.724 111.888C191.724 113.168 192.604 113.968 194.172 114.272L195.548 114.528C196.604 114.736 197.036 115.04 197.036 115.744C197.036 116.544 196.284 116.944 195.148 116.944C193.852 116.944 193.004 116.288 192.94 115.232H191.388C191.548 117.056 192.876 118.16 195.116 118.16C197.372 118.16 198.668 117.136 198.668 115.472ZM205.107 116.432C204.771 116.592 204.435 116.656 204.051 116.656C203.187 116.656 202.627 116.24 202.627 115.072V110.896H205.187V109.52H202.627V107.008H201.011V109.52H199.139V110.896H201.011V115.44C201.011 117.312 202.099 118.16 203.667 118.16C204.179 118.16 204.611 118.08 205.107 117.856V116.432ZM211.865 118H213.209V112.56C213.209 110.544 211.993 109.36 209.897 109.36C207.913 109.36 206.553 110.624 206.473 112.528H207.945C207.993 111.344 208.713 110.64 209.897 110.64C211.017 110.64 211.673 111.328 211.673 112.544V113.168C210.985 113.088 210.585 113.072 210.089 113.072C207.561 113.072 206.233 113.936 206.233 115.6C206.233 117.152 207.385 118.16 209.145 118.16C210.393 118.16 211.337 117.632 211.865 116.688V118ZM207.769 115.552C207.769 114.56 208.569 114.08 210.185 114.08C210.601 114.08 211.049 114.096 211.673 114.176V114.864C211.673 116.16 210.825 117.008 209.465 117.008C208.425 117.008 207.769 116.432 207.769 115.552ZM220.076 116.432C219.74 116.592 219.404 116.656 219.02 116.656C218.156 116.656 217.596 116.24 217.596 115.072V110.896H220.156V109.52H217.596V107.008H215.98V109.52H214.108V110.896H215.98V115.44C215.98 117.312 217.068 118.16 218.636 118.16C219.148 118.16 219.58 118.08 220.076 117.856V116.432ZM224.952 118.16C226.952 118.16 228.408 117.024 228.824 115.136H227.224C226.952 116.24 226.12 116.896 224.92 116.896C223.496 116.896 222.632 115.888 222.504 114.16H228.824C229.112 111.408 227.432 109.36 224.904 109.36C222.568 109.36 220.856 111.2 220.856 113.712C220.856 116.384 222.504 118.16 224.952 118.16ZM224.872 110.576C226.184 110.576 227.032 111.52 227.112 113.088H222.52C222.696 111.504 223.576 110.576 224.872 110.576ZM235.032 114.32V112.864H230.056V114.32H235.032ZM241.854 114.512C241.854 115.84 240.974 116.736 239.886 116.736C238.83 116.736 238.094 116.128 238.094 114.656V109.52H236.478V114.976C236.478 117.152 237.662 118.16 239.374 118.16C240.526 118.16 241.518 117.536 241.966 116.656V118H243.47V109.52H241.854V114.512ZM247.33 113.216C247.33 111.712 248.258 110.784 249.362 110.784C250.562 110.784 251.202 111.6 251.202 113.056V118H252.818V112.512C252.818 110.48 251.666 109.36 249.922 109.36C248.754 109.36 247.794 109.984 247.218 110.928V109.52H245.714V118H247.33V113.216ZM256.932 107.552C256.932 106.928 256.452 106.48 255.764 106.48C255.076 106.48 254.58 106.928 254.58 107.552C254.58 108.16 255.076 108.624 255.764 108.624C256.452 108.624 256.932 108.16 256.932 107.552ZM256.58 118V109.52H254.964V118H256.58ZM265.863 109.52H264.215L261.831 116.144L259.479 109.52H257.735L260.919 118H262.679L265.863 109.52ZM270.233 118.16C272.233 118.16 273.689 117.024 274.105 115.136H272.505C272.233 116.24 271.401 116.896 270.201 116.896C268.777 116.896 267.913 115.888 267.785 114.16H274.105C274.393 111.408 272.713 109.36 270.185 109.36C267.849 109.36 266.137 111.2 266.137 113.712C266.137 116.384 267.785 118.16 270.233 118.16ZM270.153 110.576C271.465 110.576 272.313 111.52 272.393 113.088H267.801C267.977 111.504 268.857 110.576 270.153 110.576ZM277.439 113.664C277.439 111.792 278.767 110.992 280.591 111.088V109.408C279.199 109.408 277.919 110.144 277.327 111.312V109.52H275.823V118H277.439V113.664ZM288.59 115.472C288.59 114.256 287.79 113.52 286.11 113.216L284.67 112.944C283.646 112.752 283.214 112.432 283.214 111.744C283.214 111.008 283.902 110.576 284.926 110.576C286.062 110.576 286.814 111.168 286.91 112.192H288.462C288.318 110.448 286.942 109.36 284.91 109.36C282.942 109.36 281.646 110.4 281.646 111.888C281.646 113.168 282.526 113.968 284.094 114.272L285.47 114.528C286.526 114.736 286.958 115.04 286.958 115.744C286.958 116.544 286.206 116.944 285.07 116.944C283.774 116.944 282.926 116.288 282.862 115.232H281.31C281.47 117.056 282.798 118.16 285.038 118.16C287.294 118.16 288.59 117.136 288.59 115.472ZM292.322 107.552C292.322 106.928 291.842 106.48 291.154 106.48C290.466 106.48 289.97 106.928 289.97 107.552C289.97 108.16 290.466 108.624 291.154 108.624C291.842 108.624 292.322 108.16 292.322 107.552ZM291.97 118V109.52H290.354V118H291.97ZM298.998 116.432C298.662 116.592 298.326 116.656 297.942 116.656C297.078 116.656 296.518 116.24 296.518 115.072V110.896H299.078V109.52H296.518V107.008H294.902V109.52H293.03V110.896H294.902V115.44C294.902 117.312 295.99 118.16 297.558 118.16C298.07 118.16 298.502 118.08 298.998 117.856V116.432ZM307.66 109.52H306.028L303.74 115.984L301.276 109.52H299.532L302.876 117.888L301.66 121.088H303.42L307.66 109.52ZM310.968 110.736C310.968 110 310.456 109.488 309.736 109.488C309.016 109.488 308.504 110 308.504 110.736C308.504 111.456 309.016 111.968 309.736 111.968C310.456 111.968 310.968 111.456 310.968 110.736ZM311 117.312C311 116.24 310.52 115.6 309.64 115.6C308.984 115.6 308.472 116.048 308.472 116.736C308.472 117.328 308.92 117.824 309.528 117.824C309.64 117.824 309.736 117.808 309.88 117.76C309.784 118.544 309.08 119.104 308.04 119.136V120.048C309.799 120.016 311 118.832 311 117.312ZM122.234 132.736C122.234 132 121.738 131.488 121.002 131.488C120.282 131.488 119.77 132 119.77 132.736C119.77 133.456 120.282 133.968 121.002 133.968C121.738 133.968 122.234 133.456 122.234 132.736ZM122.234 138.848C122.234 138.096 121.738 137.584 121.002 137.584C120.282 137.584 119.77 138.096 119.77 138.848C119.77 139.568 120.282 140.08 121.002 140.08C121.738 140.08 122.234 139.568 122.234 138.848ZM130.886 140.176C133.014 140.176 134.518 138.8 134.806 136.56H133.126C132.934 137.936 132.102 138.736 130.902 138.736C129.51 138.736 128.598 137.568 128.598 135.76C128.598 133.968 129.51 132.784 130.902 132.784C132.086 132.784 132.934 133.6 133.11 134.96H134.806C134.502 132.752 132.982 131.36 130.886 131.36C128.598 131.36 126.934 133.2 126.934 135.76C126.934 138.352 128.566 140.176 130.886 140.176ZM139.906 140.16C142.306 140.16 144.066 138.272 144.066 135.76C144.066 133.248 142.306 131.36 139.906 131.36C137.506 131.36 135.746 133.248 135.746 135.76C135.746 138.272 137.506 140.16 139.906 140.16ZM139.906 138.736C138.514 138.736 137.426 137.616 137.426 135.76C137.426 133.904 138.514 132.8 139.906 132.8C141.298 132.8 142.402 133.904 142.402 135.76C142.402 137.616 141.298 138.736 139.906 138.736ZM147.33 140V135.136C147.33 133.712 148.21 132.784 149.33 132.784C150.514 132.784 151.138 133.616 151.138 135.024V140H152.754V135.136C152.754 133.712 153.65 132.784 154.754 132.784C155.938 132.784 156.562 133.616 156.562 135.024V140H158.178V134.512C158.178 132.496 157.058 131.36 155.314 131.36C154.018 131.36 153.042 132.032 152.45 133.12C152.066 132 151.122 131.36 149.874 131.36C148.706 131.36 147.794 131.952 147.218 132.928V131.52H145.714V140H147.33ZM168.435 135.76C168.435 133.2 166.947 131.36 164.691 131.36C163.491 131.36 162.451 131.984 161.843 133.072V131.52H160.339V143.088H161.955V138.56C162.563 139.584 163.539 140.16 164.691 140.16C166.963 140.16 168.435 138.32 168.435 135.76ZM166.755 135.76C166.755 137.664 165.747 138.72 164.355 138.72C162.995 138.72 161.955 137.632 161.955 135.76C161.955 133.856 163.011 132.784 164.355 132.784C165.747 132.784 166.755 133.856 166.755 135.76ZM175.369 136.512C175.369 137.84 174.489 138.736 173.401 138.736C172.345 138.736 171.609 138.128 171.609 136.656V131.52H169.993V136.976C169.993 139.152 171.177 140.16 172.889 140.16C174.041 140.16 175.033 139.536 175.481 138.656V140H176.985V131.52H175.369V136.512ZM184.013 138.432C183.677 138.592 183.341 138.656 182.957 138.656C182.093 138.656 181.533 138.24 181.533 137.072V132.896H184.093V131.52H181.533V129.008H179.917V131.52H178.045V132.896H179.917V137.44C179.917 139.312 181.005 140.16 182.573 140.16C183.085 140.16 183.517 140.08 184.013 139.856V138.432ZM188.889 140.16C190.889 140.16 192.345 139.024 192.761 137.136H191.161C190.889 138.24 190.057 138.896 188.857 138.896C187.433 138.896 186.569 137.888 186.441 136.16H192.761C193.049 133.408 191.369 131.36 188.841 131.36C186.505 131.36 184.793 133.2 184.793 135.712C184.793 138.384 186.441 140.16 188.889 140.16ZM188.809 132.576C190.121 132.576 190.969 133.52 191.049 135.088H186.457C186.633 133.504 187.513 132.576 188.809 132.576ZM196.095 135.664C196.095 133.792 197.423 132.992 199.247 133.088V131.408C197.855 131.408 196.575 132.144 195.983 133.312V131.52H194.479V140H196.095V135.664ZM204.626 136.32V134.864H199.65V136.32H204.626ZM212.871 137.472C212.871 136.256 212.071 135.52 210.391 135.216L208.951 134.944C207.927 134.752 207.495 134.432 207.495 133.744C207.495 133.008 208.183 132.576 209.207 132.576C210.343 132.576 211.095 133.168 211.191 134.192H212.743C212.599 132.448 211.223 131.36 209.191 131.36C207.223 131.36 205.927 132.4 205.927 133.888C205.927 135.168 206.807 135.968 208.375 136.272L209.751 136.528C210.807 136.736 211.239 137.04 211.239 137.744C211.239 138.544 210.487 138.944 209.351 138.944C208.055 138.944 207.207 138.288 207.143 137.232H205.591C205.751 139.056 207.079 140.16 209.319 140.16C211.575 140.16 212.871 139.136 212.871 137.472ZM217.98 140.176C220.108 140.176 221.612 138.8 221.9 136.56H220.22C220.028 137.936 219.196 138.736 217.996 138.736C216.604 138.736 215.692 137.568 215.692 135.76C215.692 133.968 216.604 132.784 217.996 132.784C219.18 132.784 220.028 133.6 220.204 134.96H221.9C221.596 132.752 220.076 131.36 217.98 131.36C215.692 131.36 214.028 133.2 214.028 135.76C214.028 138.352 215.66 140.176 217.98 140.176ZM225.494 129.552C225.494 128.928 225.014 128.48 224.326 128.48C223.638 128.48 223.142 128.928 223.142 129.552C223.142 130.16 223.638 130.624 224.326 130.624C225.014 130.624 225.494 130.16 225.494 129.552ZM225.142 140V131.52H223.526V140H225.142ZM230.874 140.16C232.874 140.16 234.33 139.024 234.746 137.136H233.146C232.874 138.24 232.042 138.896 230.842 138.896C229.418 138.896 228.554 137.888 228.426 136.16H234.746C235.034 133.408 233.354 131.36 230.826 131.36C228.49 131.36 226.778 133.2 226.778 135.712C226.778 138.384 228.426 140.16 230.874 140.16ZM230.794 132.576C232.106 132.576 232.954 133.52 233.034 135.088H228.442C228.618 133.504 229.498 132.576 230.794 132.576ZM238.08 135.216C238.08 133.712 239.008 132.784 240.112 132.784C241.312 132.784 241.952 133.6 241.952 135.056V140H243.568V134.512C243.568 132.48 242.416 131.36 240.672 131.36C239.504 131.36 238.544 131.984 237.968 132.928V131.52H236.464V140H238.08V135.216ZM249.058 140.176C251.186 140.176 252.69 138.8 252.978 136.56H251.298C251.106 137.936 250.274 138.736 249.074 138.736C247.682 138.736 246.77 137.568 246.77 135.76C246.77 133.968 247.682 132.784 249.074 132.784C250.258 132.784 251.106 133.6 251.282 134.96H252.978C252.674 132.752 251.154 131.36 249.058 131.36C246.77 131.36 245.106 133.2 245.106 135.76C245.106 138.352 246.738 140.176 249.058 140.176ZM258.014 140.16C260.014 140.16 261.47 139.024 261.886 137.136H260.286C260.014 138.24 259.182 138.896 257.982 138.896C256.558 138.896 255.694 137.888 255.566 136.16H261.886C262.174 133.408 260.494 131.36 257.966 131.36C255.63 131.36 253.918 133.2 253.918 135.712C253.918 138.384 255.566 140.16 258.014 140.16ZM257.934 132.576C259.246 132.576 260.094 133.52 260.174 135.088H255.582C255.758 133.504 256.638 132.576 257.934 132.576ZM265.764 132.736C265.764 132 265.252 131.488 264.532 131.488C263.812 131.488 263.3 132 263.3 132.736C263.3 133.456 263.812 133.968 264.532 133.968C265.252 133.968 265.764 133.456 265.764 132.736ZM265.796 139.312C265.796 138.24 265.316 137.6 264.436 137.6C263.78 137.6 263.268 138.048 263.268 138.736C263.268 139.328 263.716 139.824 264.324 139.824C264.436 139.824 264.532 139.808 264.676 139.76C264.58 140.544 263.876 141.104 262.836 141.136V142.048C264.596 142.016 265.796 140.832 265.796 139.312ZM131.843 154.736C131.843 154 131.347 153.488 130.611 153.488C129.891 153.488 129.379 154 129.379 154.736C129.379 155.456 129.891 155.968 130.611 155.968C131.347 155.968 131.843 155.456 131.843 154.736ZM131.843 160.848C131.843 160.096 131.347 159.584 130.611 159.584C129.891 159.584 129.379 160.096 129.379 160.848C129.379 161.568 129.891 162.08 130.611 162.08C131.347 162.08 131.843 161.568 131.843 160.848ZM145.247 157.76C145.247 155.184 143.759 153.36 141.487 153.36C140.335 153.36 139.359 153.936 138.767 154.976V150.512H137.151V162H138.655V160.48C139.263 161.552 140.287 162.16 141.487 162.16C143.775 162.16 145.247 160.304 145.247 157.76ZM143.567 157.76C143.567 159.648 142.559 160.72 141.167 160.72C139.791 160.72 138.767 159.6 138.767 157.728C138.767 155.824 139.823 154.784 141.167 154.784C142.559 154.784 143.567 155.84 143.567 157.76ZM152.022 162H153.366V156.56C153.366 154.544 152.15 153.36 150.054 153.36C148.07 153.36 146.71 154.624 146.63 156.528H148.102C148.15 155.344 148.87 154.64 150.054 154.64C151.174 154.64 151.83 155.328 151.83 156.544V157.168C151.142 157.088 150.742 157.072 150.246 157.072C147.718 157.072 146.39 157.936 146.39 159.6C146.39 161.152 147.542 162.16 149.302 162.16C150.55 162.16 151.494 161.632 152.022 160.688V162ZM147.926 159.552C147.926 158.56 148.726 158.08 150.342 158.08C150.758 158.08 151.206 158.096 151.83 158.176V158.864C151.83 160.16 150.982 161.008 149.622 161.008C148.582 161.008 147.926 160.432 147.926 159.552ZM158.87 162.176C160.998 162.176 162.502 160.8 162.79 158.56H161.11C160.918 159.936 160.086 160.736 158.886 160.736C157.494 160.736 156.582 159.568 156.582 157.76C156.582 155.968 157.494 154.784 158.886 154.784C160.07 154.784 160.918 155.6 161.094 156.96H162.79C162.486 154.752 160.966 153.36 158.87 153.36C156.582 153.36 154.918 155.2 154.918 157.76C154.918 160.352 156.55 162.176 158.87 162.176ZM166.033 157.216C166.033 155.712 166.961 154.784 168.065 154.784C169.265 154.784 169.905 155.6 169.905 157.056V162H171.521V156.512C171.521 154.48 170.369 153.36 168.625 153.36C167.457 153.36 166.593 153.968 166.033 154.88V150.512H164.417V162H166.033V157.216ZM177.155 162.16C179.155 162.16 180.611 161.024 181.027 159.136H179.427C179.155 160.24 178.323 160.896 177.123 160.896C175.699 160.896 174.835 159.888 174.707 158.16H181.027C181.315 155.408 179.635 153.36 177.107 153.36C174.771 153.36 173.059 155.2 173.059 157.712C173.059 160.384 174.707 162.16 177.155 162.16ZM177.075 154.576C178.387 154.576 179.235 155.52 179.315 157.088H174.723C174.899 155.504 175.779 154.576 177.075 154.576ZM184.377 162V150.512H182.745V162H184.377ZM190.172 162.16C192.572 162.16 194.332 160.272 194.332 157.76C194.332 155.248 192.572 153.36 190.172 153.36C187.772 153.36 186.012 155.248 186.012 157.76C186.012 160.272 187.772 162.16 190.172 162.16ZM190.172 160.736C188.78 160.736 187.692 159.616 187.692 157.76C187.692 155.904 188.78 154.8 190.172 154.8C191.564 154.8 192.668 155.904 192.668 157.76C192.668 159.616 191.564 160.736 190.172 160.736ZM197.595 157.664C197.595 155.792 198.923 154.992 200.747 155.088V153.408C199.355 153.408 198.075 154.144 197.483 155.312V153.52H195.979V162H197.595V157.664ZM204.186 154.736C204.186 154 203.674 153.488 202.954 153.488C202.234 153.488 201.722 154 201.722 154.736C201.722 155.456 202.234 155.968 202.954 155.968C203.674 155.968 204.186 155.456 204.186 154.736ZM204.218 161.312C204.218 160.24 203.738 159.6 202.858 159.6C202.202 159.6 201.69 160.048 201.69 160.736C201.69 161.328 202.138 161.824 202.746 161.824C202.858 161.824 202.954 161.808 203.098 161.76C203.002 162.544 202.298 163.104 201.258 163.136V164.048C203.018 164.016 204.218 162.832 204.218 161.312ZM57.896 179.104C56.808 179.104 56.408 178.72 56.408 177.824V174.784C56.408 173.344 55.432 172.48 53.864 172.48C53.688 172.48 53.48 172.48 53.272 172.512V173.904C53.4 173.872 53.528 173.872 53.64 173.872C54.344 173.872 54.76 174.272 54.76 174.976V177.952C54.76 178.976 55.176 179.6 56.072 179.808C55.192 180.016 54.76 180.64 54.76 181.648V184.64C54.76 185.328 54.344 185.728 53.656 185.728C53.528 185.728 53.416 185.728 53.272 185.696V187.104C53.48 187.12 53.688 187.12 53.864 187.12C55.432 187.12 56.408 186.256 56.408 184.816V181.792C56.408 180.88 56.808 180.496 57.896 180.496V179.104ZM131.21 224.496C132.298 224.496 132.698 224.88 132.698 225.776V228.816C132.698 230.256 133.674 231.12 135.242 231.12C135.434 231.12 135.626 231.12 135.834 231.088V229.696C135.706 229.728 135.578 229.728 135.466 229.728C134.778 229.728 134.346 229.328 134.346 228.624V225.648C134.346 224.624 133.946 224 133.034 223.792C133.914 223.584 134.346 222.96 134.346 221.952V218.96C134.346 218.272 134.762 217.872 135.466 217.872C135.578 217.872 135.706 217.872 135.834 217.904V216.496C135.626 216.48 135.434 216.48 135.242 216.48C133.674 216.48 132.698 217.344 132.698 218.784V221.808C132.698 222.72 132.298 223.104 131.21 223.104V224.496ZM211.765 242.736C211.765 242 211.269 241.488 210.533 241.488C209.813 241.488 209.301 242 209.301 242.736C209.301 243.456 209.813 243.968 210.533 243.968C211.269 243.968 211.765 243.456 211.765 242.736ZM211.765 248.848C211.765 248.096 211.269 247.584 210.533 247.584C209.813 247.584 209.301 248.096 209.301 248.848C209.301 249.568 209.813 250.08 210.533 250.08C211.269 250.08 211.765 249.568 211.765 248.848ZM220.465 253.264C222.865 253.264 224.289 251.936 224.289 249.712V241.52H222.785V243.024C222.209 241.952 221.249 241.36 220.033 241.36C217.905 241.36 216.465 243.056 216.465 245.584C216.465 248.08 217.969 249.824 220.081 249.824C221.233 249.824 222.193 249.232 222.673 248.208V249.744C222.673 251.2 221.905 251.984 220.449 251.984C219.137 251.984 218.369 251.344 218.273 250.16H216.705C216.801 252.08 218.241 253.264 220.465 253.264ZM218.097 245.584C218.097 243.84 218.977 242.752 220.369 242.752C221.761 242.752 222.673 243.872 222.673 245.632C222.673 247.312 221.745 248.416 220.369 248.416C218.961 248.416 218.097 247.344 218.097 245.584ZM228.142 245.664C228.142 243.792 229.47 242.992 231.294 243.088V241.408C229.902 241.408 228.622 242.144 228.03 243.312V241.52H226.526V250H228.142V245.664ZM237.709 250H239.053V244.56C239.053 242.544 237.837 241.36 235.741 241.36C233.757 241.36 232.397 242.624 232.317 244.528H233.789C233.837 243.344 234.557 242.64 235.741 242.64C236.861 242.64 237.517 243.328 237.517 244.544V245.168C236.829 245.088 236.429 245.072 235.933 245.072C233.405 245.072 232.077 245.936 232.077 247.6C232.077 249.152 233.229 250.16 234.989 250.16C236.237 250.16 237.181 249.632 237.709 248.688V250ZM233.613 247.552C233.613 246.56 234.413 246.08 236.029 246.08C236.445 246.08 236.893 246.096 237.517 246.176V246.864C237.517 248.16 236.669 249.008 235.309 249.008C234.269 249.008 233.613 248.432 233.613 247.552ZM247.988 241.52H246.356L244.068 247.984L241.604 241.52H239.86L243.204 249.888L241.988 253.088H243.748L247.988 241.52ZM251.296 242.736C251.296 242 250.784 241.488 250.064 241.488C249.344 241.488 248.832 242 248.832 242.736C248.832 243.456 249.344 243.968 250.064 243.968C250.784 243.968 251.296 243.456 251.296 242.736ZM251.328 249.312C251.328 248.24 250.848 247.6 249.968 247.6C249.312 247.6 248.8 248.048 248.8 248.736C248.8 249.328 249.248 249.824 249.856 249.824C249.968 249.824 250.064 249.808 250.208 249.76C250.112 250.544 249.408 251.104 248.368 251.136V252.048C250.128 252.016 251.328 250.832 251.328 249.312ZM129.687 264.736C129.687 264 129.191 263.488 128.455 263.488C127.735 263.488 127.223 264 127.223 264.736C127.223 265.456 127.735 265.968 128.455 265.968C129.191 265.968 129.687 265.456 129.687 264.736ZM129.687 270.848C129.687 270.096 129.191 269.584 128.455 269.584C127.735 269.584 127.223 270.096 127.223 270.848C127.223 271.568 127.735 272.08 128.455 272.08C129.191 272.08 129.687 271.568 129.687 270.848ZM137.891 272V261.184H134.163V262.592H136.259V272H137.891ZM148.372 267.76C148.372 265.2 146.884 263.36 144.628 263.36C143.428 263.36 142.388 263.984 141.78 265.072V263.52H140.276V275.088H141.892V270.56C142.5 271.584 143.476 272.16 144.628 272.16C146.9 272.16 148.372 270.32 148.372 267.76ZM146.692 267.76C146.692 269.664 145.684 270.72 144.292 270.72C142.932 270.72 141.892 269.632 141.892 267.76C141.892 265.856 142.948 264.784 144.292 264.784C145.684 264.784 146.692 265.856 146.692 267.76ZM150.578 272L152.818 268.624L155.09 272H156.946L153.97 267.712L156.754 263.52H155.01L152.914 266.72L150.818 263.52H148.946L151.762 267.664L148.754 272H150.578ZM168.309 269.472C168.309 268.256 167.509 267.52 165.829 267.216L164.389 266.944C163.365 266.752 162.933 266.432 162.933 265.744C162.933 265.008 163.621 264.576 164.645 264.576C165.781 264.576 166.533 265.168 166.629 266.192H168.181C168.037 264.448 166.661 263.36 164.629 263.36C162.661 263.36 161.365 264.4 161.365 265.888C161.365 267.168 162.245 267.968 163.813 268.272L165.189 268.528C166.245 268.736 166.677 269.04 166.677 269.744C166.677 270.544 165.925 270.944 164.789 270.944C163.493 270.944 162.645 270.288 162.581 269.232H161.029C161.189 271.056 162.517 272.16 164.757 272.16C167.013 272.16 168.309 271.136 168.309 269.472ZM173.625 272.16C176.025 272.16 177.785 270.272 177.785 267.76C177.785 265.248 176.025 263.36 173.625 263.36C171.225 263.36 169.465 265.248 169.465 267.76C169.465 270.272 171.225 272.16 173.625 272.16ZM173.625 270.736C172.233 270.736 171.145 269.616 171.145 267.76C171.145 265.904 172.233 264.8 173.625 264.8C175.017 264.8 176.121 265.904 176.121 267.76C176.121 269.616 175.017 270.736 173.625 270.736ZM181.065 272V260.512H179.433V272H181.065ZM185.276 261.552C185.276 260.928 184.796 260.48 184.108 260.48C183.42 260.48 182.924 260.928 182.924 261.552C182.924 262.16 183.42 262.624 184.108 262.624C184.796 262.624 185.276 262.16 185.276 261.552ZM184.924 272V263.52H183.308V272H184.924ZM186.559 267.76C186.559 270.304 188.031 272.16 190.319 272.16C191.519 272.16 192.543 271.552 193.151 270.48V272H194.655V260.512H193.039V264.976C192.447 263.936 191.455 263.36 190.319 263.36C188.031 263.36 186.559 265.184 186.559 267.76ZM188.239 267.76C188.239 265.84 189.231 264.784 190.639 264.784C191.983 264.784 193.039 265.824 193.039 267.728C193.039 269.6 192.015 270.72 190.639 270.72C189.231 270.72 188.239 269.648 188.239 267.76ZM199.637 267.76C199.637 270.304 201.109 272.16 203.397 272.16C204.597 272.16 205.621 271.552 206.229 270.48V272H207.733V260.512H206.117V264.976C205.525 263.936 204.533 263.36 203.397 263.36C201.109 263.36 199.637 265.184 199.637 267.76ZM201.317 267.76C201.317 265.84 202.309 264.784 203.717 264.784C205.061 264.784 206.117 265.824 206.117 267.728C206.117 269.6 205.093 270.72 203.717 270.72C202.309 270.72 201.317 269.648 201.317 267.76ZM215.115 272H216.459V266.56C216.459 264.544 215.243 263.36 213.147 263.36C211.163 263.36 209.803 264.624 209.723 266.528H211.195C211.243 265.344 211.963 264.64 213.147 264.64C214.267 264.64 214.923 265.328 214.923 266.544V267.168C214.235 267.088 213.835 267.072 213.339 267.072C210.811 267.072 209.483 267.936 209.483 269.6C209.483 271.152 210.635 272.16 212.395 272.16C213.643 272.16 214.587 271.632 215.115 270.688V272ZM211.019 269.552C211.019 268.56 211.819 268.08 213.435 268.08C213.851 268.08 214.299 268.096 214.923 268.176V268.864C214.923 270.16 214.075 271.008 212.715 271.008C211.675 271.008 211.019 270.432 211.019 269.552ZM220.236 267.664C220.236 265.792 221.564 264.992 223.388 265.088V263.408C221.996 263.408 220.716 264.144 220.124 265.312V263.52H218.62V272H220.236V267.664ZM226.283 272V267.984L230.107 272H232.187L227.899 267.632L231.819 263.52H229.915L226.283 267.312V260.512H224.667V272H226.283ZM236.939 268.32V266.864H231.963V268.32H236.939ZM242.09 275.264C244.49 275.264 245.914 273.936 245.914 271.712V263.52H244.41V265.024C243.834 263.952 242.874 263.36 241.658 263.36C239.53 263.36 238.09 265.056 238.09 267.584C238.09 270.08 239.594 271.824 241.706 271.824C242.858 271.824 243.818 271.232 244.298 270.208V271.744C244.298 273.2 243.53 273.984 242.074 273.984C240.762 273.984 239.994 273.344 239.898 272.16H238.33C238.426 274.08 239.866 275.264 242.09 275.264ZM239.722 267.584C239.722 265.84 240.602 264.752 241.994 264.752C243.386 264.752 244.298 265.872 244.298 267.632C244.298 269.312 243.37 270.416 241.994 270.416C240.586 270.416 239.722 269.344 239.722 267.584ZM249.767 267.664C249.767 265.792 251.095 264.992 252.919 265.088V263.408C251.527 263.408 250.247 264.144 249.655 265.312V263.52H248.151V272H249.767V267.664ZM259.334 272H260.678V266.56C260.678 264.544 259.462 263.36 257.366 263.36C255.382 263.36 254.022 264.624 253.942 266.528H255.414C255.462 265.344 256.182 264.64 257.366 264.64C258.486 264.64 259.142 265.328 259.142 266.544V267.168C258.454 267.088 258.054 267.072 257.558 267.072C255.03 267.072 253.702 267.936 253.702 269.6C253.702 271.152 254.854 272.16 256.614 272.16C257.862 272.16 258.806 271.632 259.334 270.688V272ZM255.238 269.552C255.238 268.56 256.038 268.08 257.654 268.08C258.07 268.08 258.518 268.096 259.142 268.176V268.864C259.142 270.16 258.294 271.008 256.934 271.008C255.894 271.008 255.238 270.432 255.238 269.552ZM269.613 263.52H267.981L265.693 269.984L263.229 263.52H261.485L264.829 271.888L263.613 275.088H265.373L269.613 263.52ZM272.921 264.736C272.921 264 272.409 263.488 271.689 263.488C270.969 263.488 270.457 264 270.457 264.736C270.457 265.456 270.969 265.968 271.689 265.968C272.409 265.968 272.921 265.456 272.921 264.736ZM272.953 271.312C272.953 270.24 272.473 269.6 271.593 269.6C270.937 269.6 270.425 270.048 270.425 270.736C270.425 271.328 270.873 271.824 271.481 271.824C271.593 271.824 271.689 271.808 271.833 271.76C271.737 272.544 271.033 273.104 269.993 273.136V274.048C271.753 274.016 272.953 272.832 272.953 271.312ZM57.896 289.104C56.808 289.104 56.408 288.72 56.408 287.824V284.784C56.408 283.344 55.432 282.48 53.864 282.48C53.688 282.48 53.48 282.48 53.272 282.512V283.904C53.4 283.872 53.528 283.872 53.64 283.872C54.344 283.872 54.76 284.272 54.76 284.976V287.952C54.76 288.976 55.176 289.6 56.072 289.808C55.192 290.016 54.76 290.64 54.76 291.648V294.64C54.76 295.328 54.344 295.728 53.656 295.728C53.528 295.728 53.416 295.728 53.272 295.696V297.104C53.48 297.12 53.688 297.12 53.864 297.12C55.432 297.12 56.408 296.256 56.408 294.816V291.792C56.408 290.88 56.808 290.496 57.896 290.496V289.104Z" fill="#273266"/>
<path d="M84.2463 115.472C84.2463 114.256 83.4463 113.52 81.7663 113.216L80.3263 112.944C79.3023 112.752 78.8703 112.432 78.8703 111.744C78.8703 111.008 79.5583 110.576 80.5823 110.576C81.7183 110.576 82.4703 111.168 82.5663 112.192H84.1183C83.9743 110.448 82.5983 109.36 80.5663 109.36C78.5983 109.36 77.3023 110.4 77.3023 111.888C77.3023 113.168 78.1823 113.968 79.7503 114.272L81.1263 114.528C82.1823 114.736 82.6143 115.04 82.6143 115.744C82.6143 116.544 81.8623 116.944 80.7263 116.944C79.4303 116.944 78.5823 116.288 78.5182 115.232H76.9663C77.1263 117.056 78.4543 118.16 80.6943 118.16C82.9503 118.16 84.2463 117.136 84.2463 115.472ZM89.3546 118.176C91.4826 118.176 92.9866 116.8 93.2746 114.56H91.5946C91.4026 115.936 90.5706 116.736 89.3706 116.736C87.9786 116.736 87.0666 115.568 87.0666 113.76C87.0666 111.968 87.9786 110.784 89.3706 110.784C90.5546 110.784 91.4026 111.6 91.5786 112.96H93.2746C92.9706 110.752 91.4506 109.36 89.3546 109.36C87.0666 109.36 85.4026 111.2 85.4026 113.76C85.4026 116.352 87.0346 118.176 89.3546 118.176ZM96.5173 113.216C96.5173 111.712 97.4453 110.784 98.5493 110.784C99.7493 110.784 100.389 111.6 100.389 113.056V118H102.005V112.512C102.005 110.48 100.853 109.36 99.1093 109.36C97.9413 109.36 97.0773 109.968 96.5173 110.88V106.512H94.9013V118H96.5173V113.216ZM107.703 118.16C110.103 118.16 111.863 116.272 111.863 113.76C111.863 111.248 110.103 109.36 107.703 109.36C105.303 109.36 103.543 111.248 103.543 113.76C103.543 116.272 105.303 118.16 107.703 118.16ZM107.703 116.736C106.311 116.736 105.223 115.616 105.223 113.76C105.223 111.904 106.311 110.8 107.703 110.8C109.095 110.8 110.199 111.904 110.199 113.76C110.199 115.616 109.095 116.736 107.703 116.736ZM117.063 118.16C119.463 118.16 121.223 116.272 121.223 113.76C121.223 111.248 119.463 109.36 117.063 109.36C114.663 109.36 112.903 111.248 112.903 113.76C112.903 116.272 114.663 118.16 117.063 118.16ZM117.063 116.736C115.671 116.736 114.583 115.616 114.583 113.76C114.583 111.904 115.671 110.8 117.063 110.8C118.455 110.8 119.559 111.904 119.559 113.76C119.559 115.616 118.455 116.736 117.063 116.736ZM124.502 118V106.512H122.87V118H124.502ZM79.1423 140V135.136C79.1423 133.712 80.0223 132.784 81.1423 132.784C82.3263 132.784 82.9503 133.616 82.9503 135.024V140H84.5663V135.136C84.5663 133.712 85.4623 132.784 86.5663 132.784C87.7503 132.784 88.3743 133.616 88.3743 135.024V140H89.9903V134.512C89.9903 132.496 88.8703 131.36 87.1263 131.36C85.8303 131.36 84.8542 132.032 84.2623 133.12C83.8783 132 82.9343 131.36 81.6863 131.36C80.5182 131.36 79.6063 131.952 79.0303 132.928V131.52H77.5263V140H79.1423ZM97.2873 140H98.6313V134.56C98.6313 132.544 97.4153 131.36 95.3193 131.36C93.3353 131.36 91.9753 132.624 91.8953 134.528H93.3673C93.4153 133.344 94.1353 132.64 95.3193 132.64C96.4393 132.64 97.0953 133.328 97.0953 134.544V135.168C96.4073 135.088 96.0073 135.072 95.5113 135.072C92.9833 135.072 91.6553 135.936 91.6553 137.6C91.6553 139.152 92.8073 140.16 94.5673 140.16C95.8153 140.16 96.7593 139.632 97.2873 138.688V140ZM93.1913 137.552C93.1913 136.56 93.9913 136.08 95.6073 136.08C96.0233 136.08 96.4713 136.096 97.0953 136.176V136.864C97.0953 138.16 96.2473 139.008 94.8873 139.008C93.8473 139.008 93.1913 138.432 93.1913 137.552ZM102.76 129.552C102.76 128.928 102.28 128.48 101.592 128.48C100.904 128.48 100.408 128.928 100.408 129.552C100.408 130.16 100.904 130.624 101.592 130.624C102.28 130.624 102.76 130.16 102.76 129.552ZM102.392 131.52H100.776V140.384C100.776 141.36 100.312 141.744 99.5919 141.744C99.2399 141.744 98.9359 141.696 98.6639 141.568V143.088C99.0319 143.232 99.4319 143.248 99.7839 143.248C101.336 143.248 102.392 142.352 102.392 140.416V131.52ZM108.188 140.16C110.588 140.16 112.348 138.272 112.348 135.76C112.348 133.248 110.588 131.36 108.188 131.36C105.788 131.36 104.028 133.248 104.028 135.76C104.028 138.272 105.788 140.16 108.188 140.16ZM108.188 138.736C106.796 138.736 105.708 137.616 105.708 135.76C105.708 133.904 106.796 132.8 108.188 132.8C109.58 132.8 110.684 133.904 110.684 135.76C110.684 137.616 109.58 138.736 108.188 138.736ZM115.611 135.664C115.611 133.792 116.939 132.992 118.763 133.088V131.408C117.371 131.408 116.091 132.144 115.499 133.312V131.52H113.995V140H115.611V135.664ZM76.9183 157.76C76.9183 160.304 78.3903 162.16 80.6783 162.16C81.8783 162.16 82.9023 161.552 83.5103 160.48V162H85.0143V150.512H83.3983V154.976C82.8063 153.936 81.8143 153.36 80.6783 153.36C78.3903 153.36 76.9183 155.184 76.9183 157.76ZM78.5983 157.76C78.5983 155.84 79.5903 154.784 80.9983 154.784C82.3423 154.784 83.3983 155.824 83.3983 157.728C83.3983 159.6 82.3743 160.72 80.9983 160.72C79.5903 160.72 78.5983 159.648 78.5983 157.76ZM90.7486 162.16C92.7486 162.16 94.2046 161.024 94.6206 159.136H93.0206C92.7486 160.24 91.9166 160.896 90.7166 160.896C89.2926 160.896 88.4286 159.888 88.3006 158.16H94.6206C94.9086 155.408 93.2286 153.36 90.7006 153.36C88.3646 153.36 86.6526 155.2 86.6526 157.712C86.6526 160.384 88.3006 162.16 90.7486 162.16ZM90.6686 154.576C91.9806 154.576 92.8286 155.52 92.9086 157.088H88.3166C88.4926 155.504 89.3726 154.576 90.6686 154.576ZM99.5745 165.264C101.975 165.264 103.399 163.936 103.399 161.712V153.52H101.895V155.024C101.319 153.952 100.359 153.36 99.1425 153.36C97.0145 153.36 95.5745 155.056 95.5745 157.584C95.5745 160.08 97.0785 161.824 99.1905 161.824C100.343 161.824 101.303 161.232 101.783 160.208V161.744C101.783 163.2 101.015 163.984 99.5585 163.984C98.2465 163.984 97.4785 163.344 97.3825 162.16H95.8145C95.9105 164.08 97.3505 165.264 99.5745 165.264ZM97.2065 157.584C97.2065 155.84 98.0865 154.752 99.4785 154.752C100.871 154.752 101.783 155.872 101.783 157.632C101.783 159.312 100.855 160.416 99.4785 160.416C98.0705 160.416 97.2065 159.344 97.2065 157.584ZM107.252 157.664C107.252 155.792 108.58 154.992 110.404 155.088V153.408C109.012 153.408 107.732 154.144 107.14 155.312V153.52H105.636V162H107.252V157.664ZM115.139 162.16C117.139 162.16 118.595 161.024 119.011 159.136H117.411C117.139 160.24 116.307 160.896 115.107 160.896C113.683 160.896 112.819 159.888 112.691 158.16H119.011C119.299 155.408 117.619 153.36 115.091 153.36C112.755 153.36 111.043 155.2 111.043 157.712C111.043 160.384 112.691 162.16 115.139 162.16ZM115.059 154.576C116.371 154.576 117.219 155.52 117.299 157.088H112.707C112.883 155.504 113.763 154.576 115.059 154.576ZM124.061 162.16C126.061 162.16 127.517 161.024 127.933 159.136H126.333C126.061 160.24 125.229 160.896 124.029 160.896C122.605 160.896 121.741 159.888 121.613 158.16H127.933C128.221 155.408 126.541 153.36 124.013 153.36C121.677 153.36 119.965 155.2 119.965 157.712C119.965 160.384 121.613 162.16 124.061 162.16ZM123.981 154.576C125.293 154.576 126.141 155.52 126.221 157.088H121.629C121.805 155.504 122.685 154.576 123.981 154.576ZM85.6223 245.76C85.6223 243.184 84.1343 241.36 81.8623 241.36C80.7103 241.36 79.7343 241.936 79.1423 242.976V238.512H77.5263V250H79.0303V248.48C79.6383 249.552 80.6623 250.16 81.8623 250.16C84.1503 250.16 85.6223 248.304 85.6223 245.76ZM83.9423 245.76C83.9423 247.648 82.9343 248.72 81.5423 248.72C80.1663 248.72 79.1423 247.6 79.1423 245.728C79.1423 243.824 80.1983 242.784 81.5423 242.784C82.9343 242.784 83.9423 243.84 83.9423 245.76ZM92.3966 250H93.7406V244.56C93.7406 242.544 92.5246 241.36 90.4286 241.36C88.4446 241.36 87.0846 242.624 87.0046 244.528H88.4766C88.5246 243.344 89.2446 242.64 90.4286 242.64C91.5486 242.64 92.2046 243.328 92.2046 244.544V245.168C91.5166 245.088 91.1166 245.072 90.6206 245.072C88.0926 245.072 86.7646 245.936 86.7646 247.6C86.7646 249.152 87.9166 250.16 89.6766 250.16C90.9246 250.16 91.8686 249.632 92.3966 248.688V250ZM88.3006 247.552C88.3006 246.56 89.1006 246.08 90.7166 246.08C91.1326 246.08 91.5806 246.096 92.2046 246.176V246.864C92.2046 248.16 91.3566 249.008 89.9966 249.008C88.9566 249.008 88.3006 248.432 88.3006 247.552ZM99.2453 250.176C101.373 250.176 102.877 248.8 103.165 246.56H101.485C101.293 247.936 100.461 248.736 99.2613 248.736C97.8693 248.736 96.9573 247.568 96.9573 245.76C96.9573 243.968 97.8693 242.784 99.2613 242.784C100.445 242.784 101.293 243.6 101.469 244.96H103.165C102.861 242.752 101.341 241.36 99.2453 241.36C96.9573 241.36 95.2933 243.2 95.2933 245.76C95.2933 248.352 96.9253 250.176 99.2453 250.176ZM106.408 250V245.984L110.232 250H112.312L108.024 245.632L111.944 241.52H110.04L106.408 245.312V238.512H104.792V250H106.408ZM116.528 253.264C118.928 253.264 120.352 251.936 120.352 249.712V241.52H118.848V243.024C118.272 241.952 117.312 241.36 116.096 241.36C113.968 241.36 112.528 243.056 112.528 245.584C112.528 248.08 114.032 249.824 116.144 249.824C117.296 249.824 118.256 249.232 118.736 248.208V249.744C118.736 251.2 117.968 251.984 116.512 251.984C115.2 251.984 114.432 251.344 114.336 250.16H112.768C112.864 252.08 114.304 253.264 116.528 253.264ZM114.16 245.584C114.16 243.84 115.04 242.752 116.432 242.752C117.824 242.752 118.736 243.872 118.736 245.632C118.736 247.312 117.808 248.416 116.432 248.416C115.024 248.416 114.16 247.344 114.16 245.584ZM124.205 245.664C124.205 243.792 125.533 242.992 127.357 243.088V241.408C125.965 241.408 124.685 242.144 124.093 243.312V241.52H122.589V250H124.205V245.664ZM132.156 250.16C134.556 250.16 136.316 248.272 136.316 245.76C136.316 243.248 134.556 241.36 132.156 241.36C129.756 241.36 127.996 243.248 127.996 245.76C127.996 248.272 129.756 250.16 132.156 250.16ZM132.156 248.736C130.764 248.736 129.676 247.616 129.676 245.76C129.676 243.904 130.764 242.8 132.156 242.8C133.548 242.8 134.652 243.904 134.652 245.76C134.652 247.616 133.548 248.736 132.156 248.736ZM143.26 246.512C143.26 247.84 142.38 248.736 141.292 248.736C140.236 248.736 139.5 248.128 139.5 246.656V241.52H137.884V246.976C137.884 249.152 139.068 250.16 140.78 250.16C141.932 250.16 142.924 249.536 143.372 248.656V250H144.876V241.52H143.26V246.512ZM148.736 245.216C148.736 243.712 149.664 242.784 150.768 242.784C151.968 242.784 152.608 243.6 152.608 245.056V250H154.224V244.512C154.224 242.48 153.072 241.36 151.328 241.36C150.16 241.36 149.2 241.984 148.624 242.928V241.52H147.12V250H148.736V245.216ZM155.762 245.76C155.762 248.304 157.234 250.16 159.522 250.16C160.722 250.16 161.746 249.552 162.354 248.48V250H163.858V238.512H162.242V242.976C161.65 241.936 160.658 241.36 159.522 241.36C157.234 241.36 155.762 243.184 155.762 245.76ZM157.442 245.76C157.442 243.84 158.434 242.784 159.842 242.784C161.186 242.784 162.242 243.824 162.242 245.728C162.242 247.6 161.218 248.72 159.842 248.72C158.434 248.72 157.442 247.648 157.442 245.76ZM170.36 246.32V244.864H165.384V246.32H170.36ZM175.464 250.176C177.592 250.176 179.096 248.8 179.384 246.56H177.704C177.512 247.936 176.68 248.736 175.48 248.736C174.088 248.736 173.176 247.568 173.176 245.76C173.176 243.968 174.088 242.784 175.48 242.784C176.664 242.784 177.512 243.6 177.688 244.96H179.384C179.08 242.752 177.56 241.36 175.464 241.36C173.176 241.36 171.512 243.2 171.512 245.76C171.512 248.352 173.144 250.176 175.464 250.176ZM184.485 250.16C186.885 250.16 188.645 248.272 188.645 245.76C188.645 243.248 186.885 241.36 184.485 241.36C182.085 241.36 180.325 243.248 180.325 245.76C180.325 248.272 182.085 250.16 184.485 250.16ZM184.485 248.736C183.093 248.736 182.005 247.616 182.005 245.76C182.005 243.904 183.093 242.8 184.485 242.8C185.877 242.8 186.981 243.904 186.981 245.76C186.981 247.616 185.877 248.736 184.485 248.736ZM191.924 250V238.512H190.292V250H191.924ZM197.719 250.16C200.119 250.16 201.879 248.272 201.879 245.76C201.879 243.248 200.119 241.36 197.719 241.36C195.319 241.36 193.559 243.248 193.559 245.76C193.559 248.272 195.319 250.16 197.719 250.16ZM197.719 248.736C196.327 248.736 195.239 247.616 195.239 245.76C195.239 243.904 196.327 242.8 197.719 242.8C199.111 242.8 200.215 243.904 200.215 245.76C200.215 247.616 199.111 248.736 197.719 248.736ZM205.142 245.664C205.142 243.792 206.47 242.992 208.294 243.088V241.408C206.902 241.408 205.622 242.144 205.03 243.312V241.52H203.526V250H205.142V245.664ZM85.6223 267.76C85.6223 265.184 84.1343 263.36 81.8623 263.36C80.7103 263.36 79.7343 263.936 79.1423 264.976V260.512H77.5263V272H79.0303V270.48C79.6383 271.552 80.6623 272.16 81.8623 272.16C84.1503 272.16 85.6223 270.304 85.6223 267.76ZM83.9423 267.76C83.9423 269.648 82.9343 270.72 81.5423 270.72C80.1663 270.72 79.1423 269.6 79.1423 267.728C79.1423 265.824 80.1983 264.784 81.5423 264.784C82.9343 264.784 83.9423 265.84 83.9423 267.76ZM90.8126 272.16C93.2126 272.16 94.9726 270.272 94.9726 267.76C94.9726 265.248 93.2126 263.36 90.8126 263.36C88.4126 263.36 86.6526 265.248 86.6526 267.76C86.6526 270.272 88.4126 272.16 90.8126 272.16ZM90.8126 270.736C89.4206 270.736 88.3326 269.616 88.3326 267.76C88.3326 265.904 89.4206 264.8 90.8126 264.8C92.2046 264.8 93.3086 265.904 93.3086 267.76C93.3086 269.616 92.2046 270.736 90.8126 270.736ZM98.236 267.664C98.236 265.792 99.564 264.992 101.388 265.088V263.408C99.996 263.408 98.716 264.144 98.124 265.312V263.52H96.62V272H98.236V267.664ZM102.028 267.76C102.028 270.304 103.5 272.16 105.788 272.16C106.988 272.16 108.012 271.552 108.62 270.48V272H110.124V260.512H108.508V264.976C107.916 263.936 106.924 263.36 105.788 263.36C103.5 263.36 102.028 265.184 102.028 267.76ZM103.708 267.76C103.708 265.84 104.7 264.784 106.108 264.784C107.452 264.784 108.508 265.824 108.508 267.728C108.508 269.6 107.484 270.72 106.108 270.72C104.7 270.72 103.708 269.648 103.708 267.76ZM115.858 272.16C117.858 272.16 119.314 271.024 119.73 269.136H118.13C117.858 270.24 117.026 270.896 115.826 270.896C114.402 270.896 113.538 269.888 113.41 268.16H119.73C120.018 265.408 118.338 263.36 115.81 263.36C113.474 263.36 111.762 265.2 111.762 267.712C111.762 270.384 113.41 272.16 115.858 272.16ZM115.778 264.576C117.09 264.576 117.938 265.52 118.018 267.088H113.426C113.602 265.504 114.482 264.576 115.778 264.576ZM123.064 267.664C123.064 265.792 124.392 264.992 126.216 265.088V263.408C124.824 263.408 123.544 264.144 122.952 265.312V263.52H121.448V272H123.064V267.664Z" fill="#5C96FD"/>
<path d="M31.016 96V85.184H27.288V86.592H29.384V96H31.016ZM34.824 116.56H30.264L32.44 114.096C34.216 112.208 34.68 111.344 34.68 110.112C34.68 108.336 33.208 107.024 31.192 107.024C29.048 107.024 27.544 108.464 27.544 110.464H29.128C29.128 109.264 29.928 108.48 31.128 108.48C32.232 108.48 32.984 109.232 32.984 110.304C32.984 111.28 32.488 112.032 31.208 113.424L27.832 117.072V118H34.824V116.56ZM31.544 140.144C33.848 140.144 35.416 138.832 35.416 136.912C35.416 135.664 34.6 134.736 33.176 134.352C34.296 133.824 34.92 132.976 34.92 131.92C34.92 130.224 33.576 129.024 31.496 129.024C29.528 129.024 28.024 130.352 27.976 132.128H29.544C29.592 131.024 30.328 130.32 31.432 130.32C32.52 130.32 33.24 131.008 33.24 132.032C33.24 133.088 32.44 133.792 31.224 133.792H30.184V135.088H31.304C32.792 135.088 33.736 135.808 33.736 136.944C33.736 138.112 32.904 138.848 31.544 138.848C30.232 138.848 29.368 138.096 29.304 136.928H27.72C27.736 138.832 29.304 140.144 31.544 140.144ZM35.656 159.616V158.208H34.184V151.184H32.936L27.368 158.48V159.616H32.568V162H34.184V159.616H35.656ZM29.176 158.208L32.568 153.632V158.208H29.176ZM31.416 184.16C33.928 184.16 35.32 182.48 35.32 180.544C35.32 178.704 34.024 177.04 31.64 177.04C30.904 177.04 30.216 177.264 29.608 177.744L30.088 174.624H34.696V173.184H28.92L27.96 179.216L29.272 179.632C29.72 178.848 30.44 178.448 31.4 178.448C32.84 178.448 33.64 179.424 33.64 180.544C33.64 181.776 32.904 182.704 31.416 182.704C30.216 182.704 29.336 182.016 29.224 180.864H27.608C27.688 182.784 29.304 184.16 31.416 184.16ZM31.464 206.144C33.784 206.144 35.432 204.544 35.432 202.496C35.432 200.4 33.896 198.976 31.784 198.976C31.496 198.976 31.176 199.04 30.856 199.152L34.04 195.184H32.2L28.936 199.216C28.008 200.336 27.512 201.2 27.512 202.576C27.512 204.544 29.176 206.144 31.464 206.144ZM31.48 204.784C30.216 204.784 29.208 203.888 29.208 202.528C29.208 201.024 30.216 200.256 31.48 200.256C32.76 200.256 33.752 201.12 33.752 202.544C33.752 203.888 32.76 204.784 31.48 204.784ZM34.6 218.128V217.184H27.304V218.64H32.792L28.68 228H30.424L34.6 218.128ZM35.704 246.96C35.704 245.648 34.824 244.784 33.688 244.368C34.584 243.968 35.288 243.12 35.288 242.016C35.288 240.256 33.8 239.024 31.752 239.024C29.672 239.024 28.2 240.256 28.2 242.016C28.2 243.12 28.888 243.968 29.8 244.368C28.664 244.784 27.768 245.648 27.768 246.96C27.768 248.848 29.384 250.144 31.752 250.144C34.104 250.144 35.704 248.848 35.704 246.96ZM29.864 242.064C29.864 240.992 30.632 240.32 31.752 240.32C32.856 240.32 33.624 240.992 33.624 242.064C33.624 243.12 32.856 243.76 31.752 243.76C30.632 243.76 29.864 243.12 29.864 242.064ZM29.464 246.928C29.464 245.76 30.392 245.056 31.752 245.056C33.096 245.056 34.04 245.76 34.04 246.928C34.04 248.128 33.096 248.848 31.752 248.848C30.392 248.848 29.464 248.128 29.464 246.928ZM31.48 261.04C29.176 261.04 27.512 262.64 27.512 264.688C27.512 266.768 29.048 268.192 31.144 268.192C31.448 268.192 31.768 268.144 32.088 268.032L28.904 272H30.76L34.008 267.968C34.968 266.784 35.432 265.936 35.432 264.608C35.432 262.64 33.784 261.04 31.48 261.04ZM31.464 262.4C32.728 262.4 33.752 263.296 33.752 264.656C33.752 266.16 32.728 266.928 31.464 266.928C30.184 266.928 29.192 266.064 29.192 264.64C29.192 263.296 30.184 262.4 31.464 262.4ZM31.016 294V283.184H27.288V284.592H29.384V294H31.016ZM33.0653 288.608C33.0653 292.192 34.4573 294.16 37.0493 294.16C39.6413 294.16 41.0493 292.192 41.0493 288.608C41.0493 285.024 39.6093 283.024 37.0493 283.024C34.4893 283.024 33.0653 285.024 33.0653 288.608ZM34.7293 288.608C34.7293 285.904 35.5613 284.48 37.0493 284.48C38.5693 284.48 39.3853 285.904 39.3853 288.608C39.3853 291.296 38.5693 292.704 37.0493 292.704C35.5293 292.704 34.7293 291.28 34.7293 288.608ZM31.016 316V305.184H27.288V306.592H29.384V316H31.016ZM36.2973 316V305.184H32.5693V306.592H34.6653V316H36.2973ZM31.016 338V327.184H27.288V328.592H29.384V338H31.016ZM40.1053 336.56H35.5453L37.7213 334.096C39.4973 332.208 39.9613 331.344 39.9613 330.112C39.9613 328.336 38.4893 327.024 36.4733 327.024C34.3293 327.024 32.8253 328.464 32.8253 330.464H34.4093C34.4093 329.264 35.2093 328.48 36.4093 328.48C37.5133 328.48 38.2653 329.232 38.2653 330.304C38.2653 331.28 37.7693 332.032 36.4893 333.424L33.1133 337.072V338H40.1053V336.56Z" fill="#273266"/>
<rect x="26" y="71" width="361" height="252" fill="url(#paint0_linear_79_3)"/>
</g>
</g>
<g clip-path="url(#clip0_79_3)">
<path d="M99.5 35C99.5 34.0275 99.8951 33.0949 100.598 32.4073C101.302 31.7196 102.255 31.3333 103.25 31.3333C104.245 31.3333 105.198 31.7196 105.902 32.4073C106.605 33.0949 107 34.0275 107 35C107 35.9724 106.605 36.9051 105.902 37.5927C105.198 38.2803 104.245 38.6666 103.25 38.6666C102.255 38.6666 101.302 38.2803 100.598 37.5927C99.8951 36.9051 99.5 35.9724 99.5 35V35Z" fill="#1ABCFE"/>
<path d="M92 42.3334C92 41.3609 92.3951 40.4283 93.0983 39.7406C93.8016 39.053 94.7554 38.6667 95.75 38.6667H99.5V42.3334C99.5 43.3058 99.1049 44.2384 98.4017 44.9261C97.6984 45.6137 96.7446 46 95.75 46C94.7554 46 93.8016 45.6137 93.0983 44.9261C92.3951 44.2384 92 43.3058 92 42.3334V42.3334Z" fill="#0ACF83"/>
<path d="M99.5 24V31.3333H103.25C104.245 31.3333 105.198 30.947 105.902 30.2594C106.605 29.5718 107 28.6391 107 27.6667C107 26.6942 106.605 25.7616 105.902 25.0739C105.198 24.3863 104.245 24 103.25 24H99.5Z" fill="#FF7262"/>
<path d="M92 27.6667C92 28.6391 92.3951 29.5718 93.0983 30.2594C93.8016 30.947 94.7554 31.3333 95.75 31.3333H99.5V24H95.75C94.7554 24 93.8016 24.3863 93.0983 25.0739C92.3951 25.7616 92 26.6942 92 27.6667V27.6667Z" fill="#F24E1E"/>
<path d="M92 35C92 35.9724 92.3951 36.9051 93.0983 37.5927C93.8016 38.2803 94.7554 38.6666 95.75 38.6666H99.5V31.3333H95.75C94.7554 31.3333 93.8016 31.7196 93.0983 32.4073C92.3951 33.0949 92 34.0275 92 35V35Z" fill="#A259FF"/>
</g>
<g clip-path="url(#clip1_79_3)">
<mask id="mask2_79_3" style="mask-type:alpha" maskUnits="userSpaceOnUse" x="303" y="25" width="21" height="21">
<path fill-rule="evenodd" clip-rule="evenodd" d="M317.891 45.8566C318.222 45.9854 318.599 45.9772 318.933 45.8165L323.257 43.7361C323.711 43.5175 324 43.0577 324 42.5533V28.4468C324 27.9424 323.711 27.4826 323.257 27.264L318.933 25.1835C318.495 24.9727 317.982 25.0243 317.598 25.3038C317.543 25.3438 317.491 25.3884 317.441 25.4375L309.165 32.9887L305.559 30.252C305.224 29.9972 304.754 30.0181 304.443 30.3017L303.286 31.3535C302.905 31.7003 302.905 32.3002 303.285 32.6476L306.412 35.5L303.285 38.3525C302.905 38.6998 302.905 39.2997 303.286 39.6465L304.443 40.6983C304.754 40.9819 305.224 41.0028 305.559 40.748L309.165 38.0113L317.441 45.5625C317.572 45.6935 317.726 45.7922 317.891 45.8566ZM318.753 30.7328L312.473 35.5L318.753 40.2672V30.7328Z" fill="white"/>
</mask>
<g mask="url(#mask2_79_3)">
<path d="M323.257 27.2674L318.93 25.1841C318.429 24.943 317.831 25.0447 317.438 25.4377L303.273 38.3527C302.892 38.7001 302.892 39.2999 303.274 39.6467L304.431 40.6986C304.743 40.9821 305.212 41.003 305.548 40.7482L322.606 27.8079C323.178 27.3738 324 27.7819 324 28.5002V28.45C324 27.9458 323.711 27.4862 323.257 27.2674Z" fill="#0065A9"/>
<g filter="url(#filter0_d_79_3)">
<path d="M323.257 43.7328L318.93 45.8161C318.429 46.0573 317.831 45.9556 317.438 45.5625L303.273 32.6475C302.892 32.3002 302.892 31.7003 303.274 31.3535L304.431 30.3017C304.743 30.0181 305.212 29.9972 305.548 30.252L322.606 43.1923C323.178 43.6264 324 43.2183 324 42.5V42.5502C324 43.0544 323.711 43.5141 323.257 43.7328Z" fill="#007ACC"/>
</g>
<g filter="url(#filter1_d_79_3)">
<path d="M318.93 45.8165C318.429 46.0576 317.831 45.9556 317.438 45.5625C317.922 46.0468 318.75 45.7038 318.75 45.0188V25.9812C318.75 25.2962 317.922 24.9532 317.438 25.4375C317.831 25.0444 318.429 24.9425 318.93 25.1835L323.256 27.264C323.711 27.4826 324 27.9424 324 28.4468V42.5533C324 43.0577 323.711 43.5175 323.256 43.7361L318.93 45.8165Z" fill="#1F9CF0"/>
</g>
<g style="mix-blend-mode:overlay" opacity="0.25">
<path fill-rule="evenodd" clip-rule="evenodd" d="M317.879 45.8566C318.21 45.9855 318.587 45.9772 318.921 45.8166L323.244 43.7362C323.698 43.5176 323.987 43.0578 323.987 42.5533V28.4469C323.987 27.9424 323.698 27.4826 323.244 27.264L318.921 25.1835C318.482 24.9727 317.97 25.0244 317.585 25.3039C317.53 25.3438 317.478 25.3884 317.429 25.4376L309.152 32.9888L305.547 30.2521C305.211 29.9973 304.742 30.0182 304.43 30.3017L303.274 31.3536C302.892 31.7004 302.892 32.3002 303.273 32.6476L306.399 35.5001L303.273 38.3525C302.892 38.6999 302.892 39.2997 303.274 39.6466L304.43 40.6984C304.742 40.9819 305.211 41.0028 305.547 40.7481L309.152 38.0114L317.429 45.5626C317.56 45.6936 317.713 45.7922 317.879 45.8566ZM318.74 30.7328L312.46 35.5001L318.74 40.2673V30.7328Z" fill="url(#paint1_linear_79_3)"/>
</g>
</g>
</g>
<defs>
<filter id="filter0_d_79_3" x="294.654" y="21.7408" width="37.6794" height="32.5383" filterUnits="userSpaceOnUse" color-interpolation-filters="sRGB">
<feFlood flood-opacity="0" result="BackgroundImageFix"/>
<feColorMatrix in="SourceAlpha" type="matrix" values="0 0 0 0 0 0 0 0 0 0 0 0 0 0 0 0 0 0 127 0" result="hardAlpha"/>
<feOffset/>
<feGaussianBlur stdDeviation="4.16667"/>
<feColorMatrix type="matrix" values="0 0 0 0 0 0 0 0 0 0 0 0 0 0 0 0 0 0 0.25 0"/>
<feBlend mode="overlay" in2="BackgroundImageFix" result="effect1_dropShadow_79_3"/>
<feBlend mode="normal" in="SourceGraphic" in2="effect1_dropShadow_79_3" result="shape"/>
</filter>
<filter id="filter1_d_79_3" x="309.104" y="16.7208" width="23.2292" height="37.5585" filterUnits="userSpaceOnUse" color-interpolation-filters="sRGB">
<feFlood flood-opacity="0" result="BackgroundImageFix"/>
<feColorMatrix in="SourceAlpha" type="matrix" values="0 0 0 0 0 0 0 0 0 0 0 0 0 0 0 0 0 0 127 0" result="hardAlpha"/>
<feOffset/>
<feGaussianBlur stdDeviation="4.16667"/>
<feColorMatrix type="matrix" values="0 0 0 0 0 0 0 0 0 0 0 0 0 0 0 0 0 0 0.25 0"/>
<feBlend mode="overlay" in2="BackgroundImageFix" result="effect1_dropShadow_79_3"/>
<feBlend mode="normal" in="SourceGraphic" in2="effect1_dropShadow_79_3" result="shape"/>
</filter>
<linearGradient id="paint0_linear_79_3" x1="206.5" y1="71" x2="206.5" y2="323" gradientUnits="userSpaceOnUse">
<stop stop-color="#F8F8F8" stop-opacity="0"/>
<stop offset="0.411458" stop-color="#F8F8F8" stop-opacity="0"/>
<stop offset="0.890625" stop-color="#F8F8F8"/>
</linearGradient>
<linearGradient id="paint1_linear_79_3" x1="313.487" y1="25.0542" x2="313.487" y2="45.9459" gradientUnits="userSpaceOnUse">
<stop stop-color="white"/>
<stop offset="1" stop-color="white" stop-opacity="0"/>
</linearGradient>
<clipPath id="clip0_79_3">
<rect width="15" height="22" fill="white" transform="translate(92 24)"/>
</clipPath>
<clipPath id="clip1_79_3">
<rect width="21" height="21" fill="white" transform="translate(303 25)"/>
</clipPath>
</defs>
</svg>
