<svg width="29" height="33" viewBox="0 0 29 33" fill="none" xmlns="http://www.w3.org/2000/svg">
<path d="M28.9737 0.0703125L26.3342 29.6403L14.4691 32.9296L2.63683 29.6448L0 0.0703125H28.9737Z" fill="#273266"/>
<path d="M14.4868 30.4153L24.0743 27.7574L26.3299 2.4884H14.4868V30.4153Z" fill="#384689"/>
<path d="M9.35565 9.74292H14.4869V6.11572H5.3916L5.47837 7.08882L6.36992 17.0844H14.4869V13.4572H9.68718L9.35565 9.74292ZM10.1732 18.8981H6.53199L7.04012 24.5933L14.4702 26.6558L14.4869 26.6513V22.8775L14.471 22.8817L10.4314 21.7909L10.1732 18.8981Z" fill="#EBEBEB"/>
<path d="M14.4742 17.0844H18.9407L18.5196 21.7886L14.4741 22.8805V26.6541L21.9101 24.5933L21.9646 23.9805L22.8171 14.4312L22.9056 13.4572H14.4742V17.0844ZM14.4742 9.73406V9.74292H23.2356L23.3083 8.92769L23.4737 7.08882L23.5603 6.11572H14.4742V9.73406Z" fill="white"/>
</svg>
