<svg width="33" height="33" viewBox="0 0 33 33" fill="none" xmlns="http://www.w3.org/2000/svg">
<g clip-path="url(#clip0_2_34)">
<path d="M0 16.5V0H16.5H33V16.5V33H16.5H0V16.5ZM14.4464 30.28C16.4309 29.937 17.6261 28.6681 17.8916 26.6221C17.9183 26.4162 17.9376 23.9773 17.9385 20.6899L17.9399 15.1073H16.4056H14.8712L14.8704 20.383C14.8699 23.5407 14.8508 25.8376 14.8227 26.1042C14.7297 26.9871 14.3996 27.4168 13.7005 27.565C12.7102 27.7749 11.9728 27.3776 11.3673 26.3079C11.2902 26.1716 11.2047 26.0601 11.1775 26.0601C11.1328 26.0601 8.81238 27.4424 8.71828 27.5251C8.62014 27.6113 9.20781 28.5103 9.66593 28.9747C10.791 30.1153 12.5773 30.603 14.4464 30.28ZM26.3197 30.3043C27.5816 30.1453 28.6102 29.6578 29.3641 28.8613C29.673 28.5349 29.7891 28.3676 29.9758 27.9793C30.2825 27.3415 30.3585 27.019 30.3888 26.2253C30.4438 24.7888 30.0642 23.7728 29.1443 22.8941C28.4849 22.2642 27.6535 21.7776 26.0837 21.1028C24.4737 20.4108 23.9784 20.0944 23.7424 19.6069C23.5786 19.2684 23.587 18.7566 23.7624 18.3994C24.0223 17.8703 24.5237 17.6259 25.2631 17.6681C25.9677 17.7083 26.459 18.0054 26.8879 18.6506L27.1019 18.9725L28.183 18.2792C28.7776 17.8978 29.3186 17.5433 29.3851 17.4914L29.5061 17.397L29.2395 17.0019C28.5713 16.0114 27.687 15.3825 26.5697 15.1035C26.0054 14.9625 24.7391 14.9261 24.1245 15.033C23.1119 15.2093 22.3952 15.5644 21.7356 16.2167C21.1385 16.8072 20.8157 17.3982 20.6485 18.207C20.5307 18.7767 20.5781 19.8581 20.7454 20.4161C21.173 21.8428 22.1339 22.7621 24.1086 23.6338C24.4938 23.8039 25.0954 24.0697 25.4455 24.2246C26.8561 24.8484 27.3029 25.2956 27.3029 26.0837C27.3029 26.8128 26.8385 27.3202 25.9623 27.5485C25.493 27.6708 24.5979 27.6276 24.1064 27.4589C23.4366 27.2291 22.795 26.7118 22.354 26.0463C22.2269 25.8545 22.1512 25.7812 22.1003 25.8007C21.954 25.8569 19.6395 27.2128 19.6395 27.2424C19.6395 27.3507 20.3522 28.3189 20.6585 28.6269C22.017 29.9925 24.0393 30.5917 26.3197 30.3043Z" fill="#273266"/>
</g>
<defs>
<clipPath id="clip0_2_34">
<rect width="33" height="33" fill="white"/>
</clipPath>
</defs>
</svg>
