<svg width="16" height="33" viewBox="0 0 16 33" fill="none" xmlns="http://www.w3.org/2000/svg">
<path d="M8.06075 0.586182L8.91475 2.19018C9.10675 2.48618 9.31475 2.74818 9.55975 2.99218C10.2748 3.70718 10.9538 4.45618 11.5638 5.25818C13.0107 7.15818 13.9868 9.26818 14.6838 11.5502C15.1018 12.9442 15.3287 14.3742 15.3457 15.8202C15.4158 20.1432 13.9338 23.8552 10.9457 26.9402C10.4578 27.4282 9.93575 27.8802 9.37575 28.2822C9.07975 28.2822 8.93975 28.0552 8.81775 27.8462C8.59075 27.4632 8.45175 27.0262 8.38175 26.5912C8.27675 26.0682 8.20775 25.5452 8.24175 25.0052V24.7612C8.21775 24.7092 7.95675 0.709182 8.06075 0.586182Z" fill="#273266"/>
<path d="M8.06071 0.533182C8.02571 0.463182 7.99071 0.516182 7.95571 0.550182C7.97271 0.900182 7.85071 1.21218 7.65971 1.51018C7.44971 1.80618 7.17171 2.03318 6.89271 2.27718C5.34271 3.61918 4.12271 5.24018 3.14571 7.05318C1.84571 9.49318 1.17571 12.1082 0.98571 14.8612C0.89871 15.8542 1.29971 19.3582 1.61271 20.3692C2.46671 23.0532 4.00071 25.3022 5.98771 27.2542C6.47571 27.7242 6.99771 28.1602 7.53771 28.5792C7.69471 28.5792 7.71171 28.4392 7.74771 28.3352C7.81654 28.1126 7.86902 27.8854 7.90471 27.6552L8.25471 25.0412L8.06071 0.533182Z" fill="#273266"/>
<path d="M8.9146 29.3441C8.9496 28.9441 9.1416 28.6121 9.3506 28.2811C9.1406 28.1941 8.9846 28.0211 8.8626 27.8281C8.7576 27.6541 8.6706 27.4451 8.6026 27.2531C8.3586 26.5211 8.3066 25.7531 8.2366 25.0051V24.5521C8.1496 24.6221 8.1316 25.2141 8.1316 25.3021C8.08071 26.0927 7.9758 26.8789 7.8176 27.6551C7.7656 27.9691 7.7306 28.2821 7.5376 28.5611C7.5376 28.5961 7.5376 28.6311 7.5546 28.6831C7.8686 29.6071 7.9546 30.5481 8.0076 31.5071V31.8571C8.0076 32.2751 7.9906 32.1871 8.3376 32.3271C8.4776 32.3791 8.6336 32.3971 8.7736 32.5011C8.8786 32.5011 8.8956 32.4141 8.8956 32.3441L8.8436 31.7691V30.1651C8.8266 29.8851 8.8786 29.6071 8.9136 29.3451L8.9146 29.3441Z" fill="#273266"/>
</svg>
