<svg width="43" height="25" viewBox="0 0 43 25" fill="none" xmlns="http://www.w3.org/2000/svg">
<path fill-rule="evenodd" clip-rule="evenodd" d="M11.4736 8.33333C12.8734 2.77799 16.3739 0 21.9736 0C30.3736 0 31.4236 6.25 35.6236 7.29167C38.4239 7.98633 40.8736 6.94466 42.9736 4.16667C41.5739 9.722 38.0734 12.5 32.4736 12.5C24.0736 12.5 23.0236 6.25 18.8236 5.20833C16.0234 4.51367 13.5736 5.55534 11.4736 8.33333ZM0.973633 20.8333C2.37341 15.278 5.87385 12.5 11.4736 12.5C19.8736 12.5 20.9236 18.75 25.1236 19.7917C27.9239 20.4863 30.3736 19.4447 32.4736 16.6667C31.0739 22.222 27.5734 25 21.9736 25C13.5736 25 12.5236 18.75 8.32363 17.7083C5.52341 17.0137 3.07363 18.0553 0.973633 20.8333Z" fill="#273266"/>
</svg>
